<mxfile host="Electron" agent="Mozilla/5.0 (Windows NT 10.0; Win64; x64) AppleWebKit/537.36 (KHTML, like Gecko) draw.io/24.7.17 Chrome/128.0.6613.36 Electron/32.0.1 Safari/537.36" version="24.7.17">
  <diagram name="Pagina-1" id="Nyu9GzosfRtS_qjofPWO">
    <mxGraphModel dx="676" dy="391" grid="1" gridSize="10" guides="1" tooltips="1" connect="1" arrows="1" fold="1" page="1" pageScale="1" pageWidth="827" pageHeight="1169" math="1" shadow="0">
      <root>
        <mxCell id="0" />
        <mxCell id="1" parent="0" />
        <mxCell id="9hnhG1vAZfgd4h-FR44S-5" style="edgeStyle=orthogonalEdgeStyle;rounded=0;orthogonalLoop=1;jettySize=auto;html=1;entryX=0.5;entryY=0;entryDx=0;entryDy=0;" edge="1" parent="1" source="9hnhG1vAZfgd4h-FR44S-1" target="9hnhG1vAZfgd4h-FR44S-4">
          <mxGeometry relative="1" as="geometry" />
        </mxCell>
        <mxCell id="9hnhG1vAZfgd4h-FR44S-1" value="\(\begin{bmatrix} 0&amp;amp; 1 &amp;amp; 0&amp;nbsp; \end{bmatrix}\)" style="text;html=1;align=center;verticalAlign=middle;whiteSpace=wrap;rounded=0;" vertex="1" parent="1">
          <mxGeometry x="420" y="220" width="70" height="20" as="geometry" />
        </mxCell>
        <mxCell id="9hnhG1vAZfgd4h-FR44S-2" value="\(t_1\)" style="text;html=1;align=center;verticalAlign=middle;whiteSpace=wrap;rounded=0;" vertex="1" parent="1">
          <mxGeometry x="430" y="250" width="20" height="20" as="geometry" />
        </mxCell>
        <mxCell id="9hnhG1vAZfgd4h-FR44S-3" value="\(t_2\)" style="text;html=1;align=center;verticalAlign=middle;whiteSpace=wrap;rounded=0;" vertex="1" parent="1">
          <mxGeometry x="500" y="260" width="30" height="25" as="geometry" />
        </mxCell>
        <mxCell id="9hnhG1vAZfgd4h-FR44S-7" style="edgeStyle=orthogonalEdgeStyle;rounded=0;orthogonalLoop=1;jettySize=auto;html=1;entryX=0.5;entryY=0;entryDx=0;entryDy=0;" edge="1" parent="1" source="9hnhG1vAZfgd4h-FR44S-4" target="9hnhG1vAZfgd4h-FR44S-6">
          <mxGeometry relative="1" as="geometry" />
        </mxCell>
        <mxCell id="9hnhG1vAZfgd4h-FR44S-14" style="edgeStyle=orthogonalEdgeStyle;rounded=0;orthogonalLoop=1;jettySize=auto;html=1;" edge="1" parent="1" source="9hnhG1vAZfgd4h-FR44S-4">
          <mxGeometry relative="1" as="geometry">
            <mxPoint x="530" y="320" as="targetPoint" />
          </mxGeometry>
        </mxCell>
        <mxCell id="9hnhG1vAZfgd4h-FR44S-4" value="\(\begin{bmatrix} 1&amp;amp; 1 &amp;amp; 0&amp;nbsp; \end{bmatrix}\)" style="text;html=1;align=center;verticalAlign=middle;whiteSpace=wrap;rounded=0;" vertex="1" parent="1">
          <mxGeometry x="420" y="280" width="70" height="20" as="geometry" />
        </mxCell>
        <mxCell id="9hnhG1vAZfgd4h-FR44S-10" style="edgeStyle=orthogonalEdgeStyle;rounded=0;orthogonalLoop=1;jettySize=auto;html=1;entryX=0.5;entryY=0;entryDx=0;entryDy=0;" edge="1" parent="1" source="9hnhG1vAZfgd4h-FR44S-6" target="9hnhG1vAZfgd4h-FR44S-9">
          <mxGeometry relative="1" as="geometry" />
        </mxCell>
        <mxCell id="9hnhG1vAZfgd4h-FR44S-15" style="edgeStyle=orthogonalEdgeStyle;rounded=0;orthogonalLoop=1;jettySize=auto;html=1;" edge="1" parent="1" source="9hnhG1vAZfgd4h-FR44S-6">
          <mxGeometry relative="1" as="geometry">
            <mxPoint x="530" y="380" as="targetPoint" />
          </mxGeometry>
        </mxCell>
        <mxCell id="9hnhG1vAZfgd4h-FR44S-6" value="\(\begin{bmatrix} 2&amp;amp; 1 &amp;amp; 0&amp;nbsp; \end{bmatrix}\)" style="text;html=1;align=center;verticalAlign=middle;whiteSpace=wrap;rounded=0;" vertex="1" parent="1">
          <mxGeometry x="420" y="340" width="70" height="20" as="geometry" />
        </mxCell>
        <mxCell id="9hnhG1vAZfgd4h-FR44S-16" style="edgeStyle=orthogonalEdgeStyle;rounded=0;orthogonalLoop=1;jettySize=auto;html=1;" edge="1" parent="1" source="9hnhG1vAZfgd4h-FR44S-9">
          <mxGeometry relative="1" as="geometry">
            <mxPoint x="530" y="440" as="targetPoint" />
          </mxGeometry>
        </mxCell>
        <mxCell id="9hnhG1vAZfgd4h-FR44S-19" style="edgeStyle=orthogonalEdgeStyle;rounded=0;orthogonalLoop=1;jettySize=auto;html=1;dashed=1;" edge="1" parent="1" source="9hnhG1vAZfgd4h-FR44S-9">
          <mxGeometry relative="1" as="geometry">
            <mxPoint x="455" y="470" as="targetPoint" />
          </mxGeometry>
        </mxCell>
        <mxCell id="9hnhG1vAZfgd4h-FR44S-9" value="\(\begin{bmatrix} 3&amp;amp; 1 &amp;amp; 0&amp;nbsp; \end{bmatrix}\)" style="text;html=1;align=center;verticalAlign=middle;whiteSpace=wrap;rounded=0;" vertex="1" parent="1">
          <mxGeometry x="420" y="400" width="70" height="20" as="geometry" />
        </mxCell>
        <mxCell id="9hnhG1vAZfgd4h-FR44S-11" value="\(t_1\)" style="text;html=1;align=center;verticalAlign=middle;whiteSpace=wrap;rounded=0;" vertex="1" parent="1">
          <mxGeometry x="430" y="307.5" width="20" height="20" as="geometry" />
        </mxCell>
        <mxCell id="9hnhG1vAZfgd4h-FR44S-12" value="\(t_1\)" style="text;html=1;align=center;verticalAlign=middle;whiteSpace=wrap;rounded=0;" vertex="1" parent="1">
          <mxGeometry x="430" y="370" width="20" height="20" as="geometry" />
        </mxCell>
        <mxCell id="9hnhG1vAZfgd4h-FR44S-17" value="\(t_2\)" style="text;html=1;align=center;verticalAlign=middle;whiteSpace=wrap;rounded=0;" vertex="1" parent="1">
          <mxGeometry x="500" y="327.5" width="30" height="25" as="geometry" />
        </mxCell>
        <mxCell id="9hnhG1vAZfgd4h-FR44S-18" value="\(t_2\)" style="text;html=1;align=center;verticalAlign=middle;whiteSpace=wrap;rounded=0;" vertex="1" parent="1">
          <mxGeometry x="500" y="380" width="30" height="25" as="geometry" />
        </mxCell>
        <mxCell id="9hnhG1vAZfgd4h-FR44S-20" value="\(t_1\)" style="text;html=1;align=center;verticalAlign=middle;whiteSpace=wrap;rounded=0;" vertex="1" parent="1">
          <mxGeometry x="430" y="430" width="20" height="20" as="geometry" />
        </mxCell>
      </root>
    </mxGraphModel>
  </diagram>
</mxfile>
